<svg width="43" height="50" viewBox="0 0 43 50" fill="none" xmlns="http://www.w3.org/2000/svg">
  <rect width="43" height="50" fill="none"/>
<path d="M18.8476 11.8295C18.7323 11.8074 18.6171 11.7871 18.5036 11.7667V46.5457C18.5663 46.5525 18.629 46.5593 18.6917 46.5644C19.5388 46.6492 20.425 46.6917 21.3229 46.6917C22.3666 46.6917 23.3781 46.6475 24.3253 46.5644C24.3812 46.5593 24.4371 46.5542 24.493 46.5474V12.8123C23.6526 12.663 22.8139 12.5187 22.0634 12.3897L21.6567 12.3201C20.6825 12.1537 19.7625 11.9959 18.8459 11.8278L18.8476 11.8295Z" fill="white"/>
<path d="M9.85921 25.4362C10.1066 25.533 10.3556 25.6264 10.6064 25.718V44.21C10.6471 44.2321 10.6877 44.2541 10.7301 44.2745C12.4363 45.1521 14.2865 45.7988 16.2298 46.1943C16.3518 46.2181 16.4738 46.2435 16.5958 46.2656V20.3694C16.345 20.3184 16.0943 20.2658 15.8486 20.2132C13.602 19.7277 11.5484 19.1438 9.85921 18.3239C7.0331 16.9541 5.22357 14.9257 5.22357 11.5919C5.22357 8.57041 6.51125 5.66099 9.85921 3.71741C11.396 2.82455 13.3681 2.13539 15.8486 1.7297C16.6771 1.5939 17.5616 1.49206 18.5053 1.42416C19.3914 1.35966 20.3301 1.32571 21.3263 1.32571C22.4293 1.32571 23.4866 1.38681 24.4964 1.50394C25.1521 1.57863 25.7875 1.67538 26.4042 1.7959C26.6566 1.84512 26.9074 1.89605 27.1514 1.95206C29.0897 2.39001 30.8331 3.03843 32.3919 3.83453C32.646 3.96524 32.8951 4.09764 33.1391 4.23513C36.3295 6.02254 38.6964 8.42273 40.3535 10.8229L41.2599 8.16981C39.7317 6.51989 37.0767 4.14177 33.1391 2.37812C31.399 1.5973 29.4065 0.936991 27.1497 0.512629C26.3025 0.351372 25.4164 0.224063 24.493 0.139191C23.5459 0.049226 22.5615 0 21.533 0C20.5046 0 19.4728 0.0339489 18.5036 0.100149C17.5819 0.164652 16.6958 0.256315 15.8469 0.376833C13.5867 0.699348 11.5925 1.21877 9.85752 1.90963C3.92064 4.27757 1.04031 8.6468 1.04031 13.897C1.04031 20.1691 4.75933 23.44 9.85921 25.4379V25.4362Z" fill="white"/>
<path d="M33.1408 23.8084C32.8934 23.7269 32.6444 23.6471 32.3936 23.5707V6.00896C32.3326 5.97501 32.2716 5.93937 32.2089 5.90372C30.5315 4.96164 28.6898 4.25889 26.7312 3.81756C26.6228 3.79379 26.5143 3.76833 26.4042 3.74627V46.3013C26.5397 46.2792 26.6753 46.2554 26.8074 46.2317C28.8982 45.8463 30.7111 45.2217 32.1954 44.3747C32.2614 44.3356 32.3275 44.2983 32.3919 44.2592V30.5286C32.6477 30.6135 32.8968 30.7034 33.1391 30.7968C36.399 32.041 38.5423 33.9693 38.5423 37.5C38.5423 40.6844 36.8937 43.8926 33.1391 46.0365C32.8985 46.174 32.6494 46.3064 32.3919 46.4337C30.9331 47.1602 29.193 47.7356 27.1514 48.1124C26.9057 48.1583 26.6583 48.2007 26.4042 48.2397C25.7942 48.3348 25.1589 48.4112 24.4964 48.4689C23.4984 48.5589 22.4429 48.6047 21.3263 48.6047C20.3555 48.6047 19.4151 48.5589 18.5053 48.4689C17.8547 48.4044 17.2176 48.3178 16.5975 48.2109C16.3451 48.1668 16.096 48.1209 15.8503 48.07C13.9595 47.683 12.2143 47.0957 10.6098 46.3437C10.3573 46.2249 10.1066 46.101 9.8626 45.9754C6.13342 44.0555 3.18701 41.2191 0.906458 37.9193L0 40.5741C1.98404 43.0167 5.21849 45.8786 9.8626 47.8018C10.1083 47.9036 10.3573 48.0021 10.6098 48.0972C12.1991 48.7015 13.9442 49.1937 15.8503 49.5264C16.0977 49.5705 16.3467 49.6113 16.5975 49.6469C17.2176 49.7403 17.853 49.815 18.5053 49.871C19.4558 49.9559 20.4419 50 21.4653 50C22.4886 50 23.5256 49.9677 24.4947 49.9049C25.1487 49.8625 25.7841 49.8065 26.4025 49.7369C26.655 49.708 26.904 49.6775 27.1497 49.6452C29.0778 49.3872 30.8247 48.9917 32.3902 48.4723C32.6444 48.3891 32.8934 48.3026 33.1374 48.2126C39.8232 45.7479 43 40.9153 43 34.9148C43 28.9143 38.771 25.6688 33.1374 23.8067L33.1408 23.8084Z" fill="white"/>
</svg>
